<svg xmlns="http://www.w3.org/2000/svg" viewBox="0 0 32 32" role="img" aria-label="Breeq">
  <defs>
    <radialGradient id="night" cx="50%" cy="18%" r="85%">
      <stop offset="0" stop-color="#1b1f33"/>
      <stop offset="1" stop-color="#07080e"/>
    </radialGradient>
    <filter id="glow" x="-40%" y="-80%" width="180%" height="260%">
      <feGaussianBlur stdDeviation="0.9"/>
    </filter>
  </defs>
  <rect width="32" height="32" rx="8" fill="url(#night)"/>
  <rect x="0.5" y="0.5" width="31" height="31" rx="7.5" fill="none" stroke="#ffffff" stroke-opacity="0.08"/>
  <g transform="translate(5 5)">
    <g filter="url(#glow)" opacity="0.7">
      <rect x="2" y="3" width="5.4" height="3.2" rx="1" fill="#ff4fa3"/>
      <rect x="8.3" y="3" width="5.4" height="3.2" rx="1" fill="#8b5cf6"/>
      <rect x="14.6" y="3" width="5.4" height="3.2" rx="1" fill="#4f7cff"/>
      <rect x="5.15" y="7.4" width="5.4" height="3.2" rx="1" fill="#22d3ee"/>
      <rect x="11.45" y="7.4" width="5.4" height="3.2" rx="1" fill="#a3e635"/>
    </g>
    <rect x="2" y="3" width="5.4" height="3.2" rx="1" fill="#ff4fa3"/>
    <rect x="8.3" y="3" width="5.4" height="3.2" rx="1" fill="#8b5cf6"/>
    <rect x="14.6" y="3" width="5.4" height="3.2" rx="1" fill="#4f7cff"/>
    <rect x="5.15" y="7.4" width="5.4" height="3.2" rx="1" fill="#22d3ee"/>
    <rect x="11.45" y="7.4" width="5.4" height="3.2" rx="1" fill="#a3e635"/>
    <circle cx="11" cy="14.6" r="2.4" fill="#ffffff" opacity="0.25"/>
    <circle cx="11" cy="14.6" r="1.7" fill="#ffffff"/>
    <rect x="7" y="18" width="8" height="2" rx="1" fill="#ffffff" opacity="0.92"/>
  </g>
</svg>
